PathFileType	4	(X/Y/Z)	20_2_18_p0_0-504.trc
DataRate	CameraRate	NumFrames	NumMarkers	Units	OrigDataRate	OrigDataStartFrame	OrigNumFrames
59.0	59.0	6	27	m	59.0	189	505
Frame#	Time	RHip			RKnee			RAnkle			RBigToe			RSmallToe			RHeel			LHip			LKnee			LAnkle			LBigToe			LSmallToe			LHeel			Neck			Head			Nose			RShoulder			RElbow			RWrist			RThumb			RIndex			RPinky			LShoulder			LElbow			LWrist			LThumb			LIndex			LPinky			
		X1	Y1	Z1	X2	Y2	Z2	X3	Y3	Z3	X4	Y4	Z4	X5	Y5	Z5	X6	Y6	Z6	X7	Y7	Z7	X8	Y8	Z8	X9	Y9	Z9	X10	Y10	Z10	X11	Y11	Z11	X12	Y12	Z12	X13	Y13	Z13	X14	Y14	Z14	X15	Y15	Z15	X16	Y16	Z16	X17	Y17	Z17	X18	Y18	Z18	X19	Y19	Z19	X20	Y20	Z20	X21	Y21	Z21	X22	Y22	Z22	X23	Y23	Z23	X24	Y24	Z24	X25	Y25	Z25	X26	Y26	Z26	X27	Y27	Z27	
189	3.2033898305084745	0.33636176743410456	0.4486482471402425	0.8648157182080402	0.3271115745587876	0.6166257662241916	1.3222120123982481	0.32930030094534946	0.7445407100062259	1.7599398340721375	0.31689998740387976	0.5973583262975038	1.7902438305035637	0.37957927237137923	0.6237920371546584	1.7896301872385478	0.32432168916047616	0.8436489883171906	1.8439664366141075	0.14685684395498677	0.45716539062912487	0.8631741524554754	0.14574233281197882	0.6534063904430739	1.321124512652487	0.14166420342282648	0.7970435751498632	1.7753090714178688	0.1634738243187624	0.5998919450690686	1.786516877168063	0.12512091650529225	0.5955833692285226	1.7798291475551171	0.1509957809384083	0.8532277349394738	1.8343582127764995	0.24988285230487298	0.3772534989511945	0.3615213299179999	0.2501406430018929	0.28800410204559956	0.13842600208547987	0.245737650507576	0.21150055184046784	0.2742342434488084	0.39632053404604956	0.4049306801818522	0.43744008508269433	0.465971470290879	0.5437367464737703	0.7042810060984993	0.449788607859535	0.4170544827191363	0.9359369874905352	0.3779339525115892	0.3946966871202991	1.0580126295700705	0.3923434714025429	0.3712913684193485	1.0724654226829957	0.44420560664415565	0.45128599437936434	1.0718490584582487	0.09629155345415896	0.41795393263877495	0.453832363151115	0.037161218713574216	0.5422437093463498	0.6717220313975424	0.006208272810842582	0.5603206314934421	0.9347137448077988	0.042323532337318275	0.5471909282245678	1.0466125505365422	0.0011350675595552038	0.5429650084400679	1.075645869941011	-0.009853881614188756	0.5615186637561334	1.0725135249921918
190	3.2203389830508473	0.3363178530556711	0.448692541674201	0.8647856499387766	0.3265050350054929	0.617108160801761	1.31833436205057	0.32910042402713585	0.7443248899578746	1.7598301566529444	0.31163763395156635	0.5851714925760075	1.7892484847586074	0.37477734733818224	0.6100064526126328	1.7845907435385282	0.3203821477972104	0.8585711779201591	1.854403989056398	0.14693395291335384	0.45716310779321817	0.8630407902132664	0.14575632266455718	0.6531912114396287	1.321105967349826	0.1416408389865322	0.7969348226058978	1.7752286952990033	0.1561916708176826	0.5990251068514604	1.782770633815602	0.11593001365965078	0.6096744895862664	1.7852005351648714	0.15301233429398137	0.8507242987633951	1.8326826036365527	0.24994556520768874	0.3772611538766779	0.3616446093450133	0.2501827301932467	0.2880125461792003	0.138598776753899	0.24573685548223456	0.211309433505425	0.2743318379823642	0.39630839887742075	0.4047631667303815	0.43736723597835964	0.4662738945547487	0.5422311072358917	0.7081252536879387	0.44088095543261274	0.40542498489874956	0.9345926826328912	0.3775529827680787	0.3922738329575374	1.054191271996555	0.3920980451561692	0.37044157343542966	1.0721644791025824	0.4336219059580088	0.48204263780403767	1.0805230310234661	0.096292542317923	0.4179553457484316	0.4538725377589294	0.04172025296809021	0.5284137590138186	0.6713344494392717	0.006136728508082771	0.5599720319421382	0.9346077209223602	0.05080316766634948	0.5342518972184499	1.0445113796663976	0.006650316462920689	0.5414674471199902	1.0800725612362592	-0.003575425596764137	0.5463839971026153	1.0745616474231485
191	3.23728813559322	0.3362375397236258	0.44941099669313095	0.8613699490227119	0.3258724468959353	0.6184874252097142	1.323398394824903	0.32909820196078404	0.7446193882233686	1.7599617618692787	0.31457068083963646	0.5688077811647869	1.7828111244963438	0.3792878095515065	0.6233868906820453	1.7894568033030234	0.32343680821111753	0.8440393590150369	1.8436525051017372	0.14610508746087555	0.45853515839109543	0.8633320704684363	0.14578991888585144	0.6529241798491711	1.3212567201568186	0.1416487345422618	0.7972141820574897	1.7753337722270368	0.1599486840512847	0.6155562845338372	1.7924880141302004	0.12106625579339549	0.6110583688827447	1.7857083771041826	0.15096954115876499	0.8536846511011696	1.834596924711013	0.2499410120518428	0.37723089448676944	0.3616689406260874	0.25018372244538833	0.2879923435956156	0.1386067460934113	0.2458414332519712	0.21092753500228303	0.2773049124399145	0.3962676564269216	0.40479964712014094	0.437337216517527	0.4663448406074929	0.5423478493799336	0.7081690354046287	0.4374419080800228	0.41946914735544577	0.932390917938495	0.3767462878421164	0.387768439541649	1.0464698380343265	0.3912964964864783	0.36761509774023354	1.0679749776418443	0.4218312345091976	0.4923209548757972	1.0755987680650814	0.09243695815329421	0.4168287263996851	0.4540256869784212	0.04168270221735882	0.5287231687710978	0.6714065222479243	0.0035332521225258677	0.5494868700898484	0.93734613101397	0.0511313306466822	0.5329581531235899	1.0485202035094678	0.0121329839485901	0.5267342159569435	1.0788424153066702	-0.007561478620012823	0.5459470594192913	1.0745355192564583
192	3.2542372881355934	0.33585416661826933	0.45807304577229835	0.8572373708370494	0.3257509527136411	0.6185698259990755	1.3232425144694686	0.32913946234228886	0.7447957642378642	1.7601290480815461	0.3121165749838746	0.5870080736006774	1.7900926617467605	0.37991052414911264	0.6249796465588531	1.7900582146076818	0.3233548341064635	0.8450441376617156	1.8439757703205337	0.1422143284785105	0.46906631158135664	0.8565269943955233	0.14087273131218436	0.6493605494096838	1.3161004665019045	0.1416328485363032	0.7976448171164547	1.7754353385483006	0.15818379266779845	0.6149596596346967	1.7924118599692997	0.12110833306655869	0.6122753428635641	1.7864159668728659	0.1478798490828527	0.8497525051408462	1.8277264492058152	0.2500158840418154	0.37721167526202715	0.36200927612649186	0.2502609320851533	0.2883984836241545	0.1388052310698559	0.24216076612565474	0.20052741500531854	0.278787905649131	0.39607590274660875	0.40532156329073354	0.43717976995533914	0.4655878447662016	0.5411953970958815	0.7045029718609797	0.4335882139797398	0.4188587242381488	0.935792870090135	0.3671364265739649	0.3798639964086523	1.051084111355114	0.39007053069935965	0.3646576110132958	1.0681041293408555	0.4124184137000794	0.48173531999577324	1.0781085672342796	0.09257459312998623	0.41666070123866594	0.4541039873491375	0.03409183558314104	0.5291799204535791	0.6716734477055947	0.008439355231964549	0.534643669831301	0.9356265478801694	0.05008514260029362	0.5445880475451303	1.057745192821036	0.01498568277187217	0.5416798407278525	1.0846631088699037	-0.0035399112355000515	0.5462851601803119	1.0749075364583547
193	3.2711864406779663	0.3359103620441342	0.4581728798954492	0.857280811870774	0.32598626936624453	0.6188490819263872	1.3236206576882632	0.329093641637017	0.744876380643044	1.7602348352800261	0.31193801865090787	0.5865051788577945	1.7898927408403797	0.3754090588188849	0.6114599818555477	1.7852429845582798	0.32438052625237407	0.8485723367747229	1.8496812541453307	0.14585121258603073	0.48160765325831567	0.8575797476961811	0.14169450784957985	0.6522363887521362	1.3211236235167276	0.14167290007142086	0.7976920296646994	1.7754653463247951	0.15904128574714105	0.6127843820389725	1.7879259043730618	0.12022479869740128	0.6083719505671263	1.7808595384955148	0.14783311972572813	0.8497174694928326	1.827664757519802	0.25005091724512074	0.3769173330131941	0.3622667100969555	0.25452704187959435	0.2891603656746608	0.13864165622232055	0.24189333899216117	0.1891683296927077	0.2803850866879367	0.3922719764592035	0.4045496544252447	0.43726217228878345	0.4655073645185264	0.5411827302393983	0.7043962822149868	0.430378996186605	0.4332933683558737	0.9338934006439469	0.3706636004173871	0.3904221513216522	1.0489052289626766	0.39173853113977264	0.34960384642144166	1.058050646222744	0.4131287337617425	0.4806796750946895	1.0751871426309938	0.0923283652765358	0.4161342896291912	0.45408974578442807	0.0346393669979594	0.5312562963893839	0.6794488560721683	0.008630713211978724	0.5364301192833785	0.9396258644182999	0.05445840683409865	0.5305658299623677	1.0558631303291077	0.0170279178883534	0.5127432835250487	1.0807025327195587	-0.0032045338688804037	0.5442085067339568	1.075371199319119
194	3.288135593220339	0.34034586663557365	0.458740754088994	0.8611151787133732	0.3261624332747723	0.6185685148555723	1.3237101131353295	0.3292495642446953	0.7451343794604454	1.760517274963427	0.31218515259480395	0.5557097092838562	1.7744792069549393	0.3755465214257725	0.6113936777633042	1.785243539236999	0.32411243542014245	0.8475403652594851	1.8493876353299217	0.14982710900749469	0.46849971066546314	0.8565975232958857	0.14095820675259635	0.6493104065819183	1.3163587984547014	0.14170968493007863	0.7974980791209865	1.7754413003484948	0.1561847552873617	0.600043309640911	1.7830305057806797	0.12038648691600673	0.608589358612927	1.7811409912761647	0.14815035607790966	0.8503760916776202	1.8281597044991211	0.24901079332389522	0.36412926344025265	0.36350862557806096	0.2502150613982153	0.28851103395625427	0.13905310476618182	0.24561396054895085	0.19893921117922567	0.28206951439624145	0.3923029127318764	0.4048017443872236	0.43724754384870174	0.4655370662300093	0.5411821416232837	0.7044589202825307	0.430227615531637	0.43294788807709733	0.9337919113565121	0.3608688078551325	0.3818683375097132	1.0466833292090936	0.38516822856218297	0.3635805397894041	1.0636034321625991	0.4104117139767605	0.4952645555219588	1.0772662373365909	0.09230963489277764	0.4158888401109151	0.45410725524777645	0.03459529621955859	0.5315816482828586	0.67952583185307	0.01302164324589185	0.5381415572029319	0.9439101261719458	0.058604471861100266	0.5310011152434244	1.0559194501398237	0.03003880077374484	0.4731519665049467	1.074510593882	-0.002122941624174429	0.5421678660129455	1.0763036400901278
